<svg width="45" height="26" viewBox="0 0 45 26" fill="none" xmlns="http://www.w3.org/2000/svg">
<path d="M5.5412 11.9522C5.89004 10.0126 7.74765 8.7235 9.68866 9.07137C11.6236 9.41838 12.913 11.2614 12.5754 13.1944L12.5744 13.2081C12.5728 13.2223 12.5697 13.2482 12.5676 13.2843C12.5632 13.3571 12.5597 13.4733 12.5685 13.6241C12.5814 13.8429 12.622 14.1239 12.7101 14.4493C12.9165 14.7256 13.2544 15.0988 13.7394 15.5216C13.7473 15.5276 13.7542 15.5328 13.7599 15.5372C13.7637 15.54 13.7669 15.5417 13.7687 15.5431C13.781 15.5493 13.8024 15.5619 13.8391 15.5802C15.5488 16.4311 16.277 18.4674 15.5207 20.1973L15.4426 20.3634C14.5625 22.127 12.4176 22.8439 10.6525 21.9659C10.3021 21.7916 9.86571 21.5623 9.25018 21.0743C9.21485 21.0463 9.17863 21.0162 9.14276 20.9854C8.13021 20.116 7.06384 19.0079 6.34491 17.752C6.23937 17.5676 6.15028 17.374 6.07929 17.1739C5.25278 14.8444 5.37275 12.8892 5.5412 11.9522ZM29.6389 11.3936C30.5854 11.2517 32.5549 11.1877 34.8742 12.086C35.0726 12.1629 35.2646 12.2582 35.4465 12.3692C36.6877 13.1274 37.7704 14.2297 38.6164 15.2725C38.6442 15.3069 38.6744 15.3432 38.7033 15.3819C39.1758 16.0133 39.3927 16.4574 39.5578 16.8136C40.3862 18.6019 39.6059 20.7218 37.8166 21.5489C36.0269 22.3757 33.9031 21.5971 33.0744 19.8087C33.0547 19.7661 33.0428 19.7439 33.0373 19.7325C33.036 19.7306 33.0342 19.7276 33.0314 19.7237C33.0267 19.7172 33.0205 19.7095 33.0139 19.7003C32.598 19.1953 32.2287 18.8403 31.9533 18.6231C31.6252 18.5238 31.34 18.4756 31.1183 18.4561C30.9661 18.4428 30.8485 18.4431 30.7746 18.4454C30.7379 18.4466 30.7119 18.4481 30.6975 18.4493C30.6903 18.4499 30.6856 18.4511 30.6838 18.4513H30.674C30.6725 18.4514 30.6683 18.4528 30.6633 18.4532C30.6618 18.4533 30.6591 18.454 30.6555 18.4542C28.7226 18.7194 26.9291 17.3848 26.6379 15.4513C26.3447 13.5025 27.6889 11.6863 29.6389 11.3936ZM33.0451 19.7442C33.0467 19.747 33.0474 19.75 33.048 19.7511C33.0472 19.7497 33.0467 19.7459 33.0451 19.7432L33.0422 19.7393L33.0402 19.7374C33.0414 19.7394 33.0437 19.7418 33.0451 19.7442ZM30.7033 18.4473C30.7043 18.4473 30.7062 18.4477 30.7082 18.4473C30.7095 18.4471 30.7184 18.4466 30.7287 18.4444C30.7324 18.4436 30.7413 18.4407 30.7463 18.4395C30.7546 18.4374 30.7767 18.4316 30.7912 18.4268L30.7932 18.4249L30.7033 18.4473ZM13.798 15.5645C13.7936 15.5614 13.7887 15.5573 13.7834 15.5538C13.7792 15.5511 13.7749 15.5489 13.7717 15.547L13.798 15.5645ZM20.7385 6.01669C21.7897 4.34944 23.9953 3.85004 25.6642 4.89852C27.3331 5.94755 27.8354 8.14975 26.7844 9.81747C26.5751 10.1495 26.3033 10.5616 25.7541 11.127C25.7205 11.1616 25.6864 11.1943 25.6545 11.2247C24.6817 12.151 23.4662 13.106 22.1379 13.6993C21.9433 13.7862 21.741 13.8564 21.5344 13.9073C19.1189 14.5019 17.1738 14.1867 16.2531 13.9249C14.3564 13.3855 13.2555 11.4119 13.7961 9.51669C14.3344 7.63028 16.296 6.53456 18.1848 7.05673L18.1906 7.0577C18.1934 7.0584 18.192 7.05925 18.1935 7.05965C18.1955 7.06011 18.2005 7.06116 18.2072 7.06258C18.2215 7.06562 18.2474 7.07046 18.2834 7.07626C18.3564 7.08799 18.4726 7.10223 18.6252 7.10848C18.8473 7.11755 19.136 7.10635 19.4738 7.04989C19.7759 6.86905 20.1904 6.56309 20.6701 6.11239L20.6945 6.08602C20.702 6.07453 20.7158 6.05259 20.7385 6.01669ZM12.4631 13.4415C12.4647 13.4405 12.4673 13.4406 12.4689 13.4395C12.4721 13.435 12.4745 13.4297 12.4777 13.4249C12.4732 13.4308 12.4678 13.4358 12.4631 13.4415ZM12.549 13.295C12.5501 13.2925 12.5513 13.29 12.5519 13.2882C12.5607 13.2631 12.5669 13.2419 12.5676 13.2393C12.57 13.2293 12.5713 13.2207 12.5715 13.2198L12.549 13.295ZM18.299 7.09969L18.2971 7.09774C18.2833 7.0911 18.2621 7.08142 18.2541 7.07821C18.2493 7.07638 18.241 7.0736 18.2375 7.07235C18.2285 7.06922 18.2204 7.0672 18.218 7.06649L18.299 7.09969Z" fill="#FFCD0E"/>
<path d="M18.4553 4.04389C20.4747 1.27569 24.3207 0.511839 27.2599 2.35834H27.2609C29.3656 3.6813 30.4614 6.0025 30.3205 8.32123C31.7439 8.26052 33.7389 8.42842 35.9582 9.28803C36.3266 9.43077 36.6788 9.60633 37.0099 9.80854L37.3156 10.0019C38.8219 10.9873 40.0489 12.2762 40.9465 13.3828C40.9517 13.3891 41.0321 13.4869 41.1047 13.5839H41.1056C41.745 14.4383 42.0621 15.0827 42.2795 15.5517V15.5527C43.8057 18.8475 42.3672 22.7508 39.0754 24.2724H39.0744C35.9221 25.7285 32.2058 24.4766 30.5578 21.4736C27.3238 21.6679 24.4009 19.4605 23.7365 16.2607C23.7203 16.2686 23.7049 16.2782 23.6887 16.2861L23.3615 16.4384C23.0104 16.5952 22.6389 16.725 22.2521 16.8203H22.2512C20.9258 17.1465 19.7028 17.2561 18.6359 17.2451C18.9587 18.5907 18.8616 20.0453 18.2697 21.3994C18.2587 21.4246 18.2473 21.4496 18.2355 21.4746L18.1574 21.6406C18.1476 21.6614 18.1374 21.6825 18.1271 21.7031C16.5069 24.9497 12.5616 26.2662 9.31659 24.6523V24.6513C8.85195 24.4202 8.21845 24.0848 7.38592 23.4247L7.18866 23.2617C6.11323 22.3382 4.86386 21.08 3.92498 19.5517L3.74139 19.2421C3.54807 18.9042 3.38358 18.5471 3.25213 18.1767C2.22034 15.2685 2.3461 12.7721 2.58905 11.4208C3.23197 7.84701 6.65127 5.47887 10.218 6.11811L10.548 6.18647C11.0213 6.29622 11.4708 6.45712 11.8937 6.65912C13.3565 4.62654 15.9059 3.55849 18.4553 4.04389ZM9.68866 9.07123C7.74765 8.72336 5.89004 10.0125 5.54119 11.9521C5.37274 12.889 5.25277 14.8442 6.07928 17.1738C6.15028 17.3738 6.23937 17.5674 6.34491 17.7519C7.06384 19.0078 8.1302 20.1158 9.14276 20.9853C9.17863 21.0161 9.21485 21.0461 9.25018 21.0742C9.86571 21.5622 10.3021 21.7914 10.6525 21.9658C12.4176 22.8438 14.5625 22.1269 15.4426 20.3632L15.5207 20.1972C16.277 18.4673 15.5488 16.4309 13.839 15.58C13.8024 15.5618 13.781 15.5492 13.7687 15.5429C13.7669 15.5415 13.7637 15.5399 13.7599 15.5371C13.7542 15.5327 13.7473 15.5275 13.7394 15.5214C13.2544 15.0986 12.9165 14.7255 12.7101 14.4492C12.622 14.1237 12.5814 13.8428 12.5685 13.624C12.5597 13.4731 12.5632 13.3569 12.5676 13.2841C12.5697 13.2481 12.5728 13.2221 12.5744 13.208L12.5754 13.1943C12.913 11.2612 11.6236 9.41824 9.68866 9.07123ZM34.8742 12.0859C32.5549 11.1875 30.5854 11.2515 29.6389 11.3935C27.6889 11.6862 26.3447 13.5024 26.6379 15.4511C26.9291 17.3846 28.7226 18.7192 30.6555 18.454C30.6591 18.4538 30.6618 18.4532 30.6633 18.4531C30.6683 18.4527 30.6725 18.4513 30.674 18.4511H30.6838C30.6856 18.4509 30.6903 18.4498 30.6974 18.4492C30.7119 18.448 30.7379 18.4464 30.7746 18.4453C30.8485 18.4429 30.9661 18.4427 31.1183 18.456C31.34 18.4754 31.6252 18.5236 31.9533 18.623C32.2287 18.8402 32.598 19.1951 33.0139 19.7001C33.0205 19.7093 33.0267 19.717 33.0314 19.7236C33.0342 19.7274 33.036 19.7305 33.0373 19.7324C33.0428 19.7437 33.0547 19.7659 33.0744 19.8085C33.9031 21.597 36.0269 22.3756 37.8166 21.5488C39.6059 20.7217 40.3862 18.6017 39.5578 16.8134C39.3927 16.4572 39.1758 16.0132 38.7033 15.3818C38.6744 15.3431 38.6442 15.3067 38.6164 15.2724C37.7704 14.2295 36.6877 13.1272 35.4465 12.3691C35.2646 12.258 35.0726 12.1627 34.8742 12.0859ZM31.133 21.415C31.1269 21.4158 31.1211 21.4172 31.1154 21.4179H31.1183C31.1282 21.4164 31.1367 21.415 31.1369 21.415C31.1369 21.415 31.1347 21.4157 31.133 21.416C31.1401 21.4149 31.1471 21.4141 31.1535 21.413C31.1548 21.4128 31.1561 21.4123 31.1574 21.4121C31.1492 21.4133 31.141 21.4138 31.133 21.415ZM33.0422 19.7392L33.0451 19.7431C33.0467 19.7458 33.0472 19.7496 33.048 19.7509C33.0474 19.7499 33.0467 19.7468 33.0451 19.7441L33.0422 19.7392ZM30.7912 18.4267C30.7767 18.4315 30.7546 18.4372 30.7463 18.4394C30.7413 18.4406 30.7324 18.4435 30.7287 18.4443C30.7184 18.4464 30.7095 18.447 30.7082 18.4472C30.7062 18.4475 30.7043 18.4471 30.7033 18.4472L30.7931 18.4247L30.7912 18.4267ZM13.7834 15.5537C13.7887 15.5571 13.7935 15.5613 13.798 15.5644L13.7717 15.5468C13.7749 15.5488 13.7792 15.5509 13.7834 15.5537ZM25.6642 4.89838C23.9953 3.8499 21.7897 4.3493 20.7385 6.01655C20.7158 6.05245 20.702 6.07439 20.6945 6.08588L20.6701 6.11225C20.1904 6.56295 19.7759 6.8689 19.4738 7.04975C19.136 7.10621 18.8473 7.11741 18.6252 7.10834C18.4726 7.10209 18.3563 7.08785 18.2834 7.07612C18.2474 7.07032 18.2215 7.06548 18.2072 7.06244C18.2005 7.06102 18.1955 7.05997 18.1935 7.05951C18.192 7.0591 18.1934 7.05825 18.1906 7.05756L18.1847 7.05658C16.296 6.53442 14.3344 7.63014 13.7961 9.51655C13.2555 11.4117 14.3564 13.3853 16.2531 13.9247C17.1738 14.1865 19.1189 14.5018 21.5344 13.9072C21.741 13.8563 21.9433 13.7861 22.1379 13.6992C23.4662 13.1058 24.6817 12.1508 25.6545 11.2246C25.6864 11.1941 25.7205 11.1615 25.7541 11.1269C26.3033 10.5614 26.5751 10.1494 26.7844 9.81733C27.8354 8.14961 27.3331 5.94741 25.6642 4.89838ZM12.4689 13.4394C12.4673 13.4404 12.4647 13.4404 12.4631 13.4414C12.4678 13.4357 12.4732 13.4307 12.4777 13.4247C12.4745 13.4296 12.4721 13.4349 12.4689 13.4394ZM12.5676 13.2392C12.5669 13.2417 12.5607 13.2629 12.5519 13.288C12.5512 13.2898 12.5501 13.2923 12.549 13.2949L12.5715 13.2197C12.5713 13.2206 12.57 13.2291 12.5676 13.2392ZM18.2375 7.07221C18.241 7.07346 18.2493 7.07624 18.2541 7.07807C18.2621 7.08128 18.2833 7.09096 18.2971 7.0976L18.299 7.09955L18.218 7.06635C18.2204 7.06706 18.2285 7.06908 18.2375 7.07221Z" fill="white"/>
</svg>
